<?xml version="1.0" standalone="no"?>
<!DOCTYPE svg PUBLIC "-//W3C//DTD SVG 20010904//EN"
 "http://www.w3.org/TR/2001/REC-SVG-20010904/DTD/svg10.dtd">
<svg version="1.0" xmlns="http://www.w3.org/2000/svg"
 width="612.000000pt" height="269.000000pt" viewBox="0 0 612.000000 269.000000"
 preserveAspectRatio="xMidYMid meet">

<g transform="translate(0.000000,269.000000) scale(0.100000,-0.100000)"
fill="#000000" stroke="none">
<path d="M2961 2103 c0 -235 4 -348 12 -372 18 -51 58 -76 122 -76 29 0 56 3
60 7 4 3 3 27 0 53 -6 36 -13 48 -31 55 l-24 10 0 330 0 330 -70 0 -70 0 1
-337z"/>
<path d="M3261 2103 c0 -235 4 -348 12 -372 18 -51 58 -76 122 -76 29 0 56 3
60 7 4 3 3 27 0 53 -6 36 -13 48 -31 55 l-24 10 0 330 0 330 -70 0 -70 0 1
-337z"/>
<path d="M1680 2020 l0 -360 70 0 70 0 0 160 0 160 140 0 140 0 0 -160 0 -160
70 0 70 0 0 360 0 360 -70 0 -70 0 0 -140 0 -140 -140 0 -140 0 0 140 0 140
-70 0 -70 0 0 -360z"/>
<path d="M2545 2204 c-61 -21 -110 -68 -142 -132 -24 -49 -28 -68 -28 -142 1
-127 42 -198 145 -251 63 -32 174 -32 248 0 28 13 52 27 52 32 0 14 -33 79
-41 79 -3 0 -23 -7 -42 -15 -101 -42 -213 7 -229 100 -3 19 4 20 167 25 l170
5 -1 65 c0 36 -6 82 -13 104 -38 113 -168 172 -286 130z m129 -104 c27 -10 56
-56 56 -90 0 -19 -6 -20 -115 -20 -63 0 -115 2 -115 5 0 3 6 21 14 40 25 60
97 89 160 65z"/>
<path d="M3702 2201 c-65 -23 -117 -70 -148 -136 -32 -67 -33 -188 -3 -255 93
-206 370 -209 465 -5 19 39 24 67 24 130 0 63 -5 91 -24 130 -30 66 -91 120
-157 139 -67 20 -92 20 -157 -3z m151 -121 c32 -26 48 -74 48 -145 0 -111 -38
-165 -116 -165 -78 0 -116 54 -116 165 0 111 38 165 116 165 27 0 51 -7 68
-20z"/>
<path d="M4205 1819 c-32 -18 -45 -40 -45 -76 0 -39 28 -71 71 -80 24 -5 28
-9 23 -27 -13 -46 -60 -93 -108 -109 -4 -1 -1 -19 7 -40 18 -41 25 -41 89 1
100 65 137 230 70 311 -20 25 -79 36 -107 20z"/>
<path d="M880 1273 c0 -38 7 -113 15 -168 8 -55 15 -103 15 -107 0 -5 15 -8
34 -8 24 0 36 5 40 18 6 22 23 166 31 260 l6 72 -70 0 -71 0 0 -67z"/>
<path d="M2931 1244 c-34 -43 -26 -86 20 -109 38 -20 62 -19 93 6 35 27 37 90
4 113 -36 26 -93 21 -117 -10z"/>
<path d="M3210 870 l0 -390 70 0 70 0 0 189 0 190 35 26 c47 36 103 43 135 17
25 -20 25 -21 28 -221 l3 -201 70 0 69 0 0 179 c0 250 -12 302 -84 355 -53 40
-189 18 -235 -38 -8 -9 -16 -16 -20 -16 -3 0 -5 67 -3 150 l3 150 -70 0 -71 0
0 -390z"/>
<path d="M570 840 l0 -360 65 0 65 0 0 360 0 360 -65 0 -65 0 0 -360z"/>
<path d="M2628 926 c-3 -273 -3 -275 -27 -300 -13 -14 -36 -28 -51 -31 -34 -8
-94 16 -112 44 -7 12 -16 21 -20 21 -16 0 -87 -55 -88 -67 0 -29 79 -92 136
-109 119 -34 222 5 271 103 l28 58 3 278 3 277 -70 0 -70 0 -3 -274z"/>
<path d="M1405 1021 c-22 -10 -55 -30 -72 -45 l-33 -27 -6 40 -7 41 -53 0 -54
0 0 -275 0 -275 65 0 65 0 0 183 c0 100 4 187 8 193 14 22 85 64 108 64 13 0
35 -11 51 -24 l27 -24 4 -196 4 -196 64 0 64 0 0 189 0 190 34 26 c47 36 95
42 126 17 25 -20 25 -21 28 -221 l3 -201 71 0 70 0 -4 213 c-4 234 -10 262
-67 310 -63 52 -142 46 -227 -19 l-46 -36 -30 36 c-45 55 -121 70 -193 37z"/>
<path d="M4793 1025 c-29 -8 -71 -24 -93 -35 l-40 -20 21 -43 c12 -23 22 -43
24 -45 1 -1 24 7 50 19 68 30 137 30 170 -1 23 -22 35 -70 18 -70 -20 -1 -151
-31 -178 -42 -80 -31 -125 -88 -125 -159 0 -143 158 -203 290 -109 36 26 37
26 45 -10 6 -29 9 -30 62 -30 l55 0 -4 208 c-3 188 -5 211 -25 247 -27 51 -52
73 -100 91 -48 17 -104 16 -170 -1z m155 -342 c-3 -53 -6 -59 -37 -80 -79 -53
-165 -7 -135 72 11 27 92 62 147 64 28 1 28 1 25 -56z"/>
<path d="M5489 1031 c-40 -13 -72 -31 -101 -59 -29 -27 -34 -23 -40 28 -3 23
-8 25 -60 28 l-58 3 0 -276 0 -275 70 0 70 0 0 189 0 190 35 26 c47 36 103 43
135 17 25 -20 25 -21 28 -221 l3 -201 70 0 69 0 0 179 c0 248 -12 302 -82 354
-29 21 -100 31 -139 18z"/>
<path d="M2920 755 l0 -275 70 0 70 0 0 275 0 275 -70 0 -70 0 0 -275z"/>
<path d="M3784 1013 c2 -10 32 -126 66 -258 34 -132 63 -248 66 -257 5 -15 18
-18 84 -18 l78 0 31 132 c17 72 36 162 43 200 6 37 14 68 18 68 4 0 10 -17 13
-37 3 -21 23 -111 44 -200 l38 -163 81 0 82 0 66 270 c36 148 66 272 66 275 0
3 -28 5 -62 3 l-63 -3 -27 -125 c-15 -69 -34 -163 -42 -209 -9 -46 -18 -86
-21 -89 -6 -6 -4 -12 -61 226 l-48 202 -61 0 -61 0 -43 -177 c-23 -98 -45
-195 -48 -215 -3 -21 -9 -38 -13 -38 -4 0 -13 30 -19 68 -7 37 -26 133 -43
215 l-32 147 -68 0 c-61 0 -69 -2 -64 -17z"/>
</g>
</svg>
