<?xml version="1.0" standalone="no"?>
<!DOCTYPE svg PUBLIC "-//W3C//DTD SVG 20010904//EN"
 "http://www.w3.org/TR/2001/REC-SVG-20010904/DTD/svg10.dtd">
<svg version="1.0" xmlns="http://www.w3.org/2000/svg"
 width="556.000000pt" height="449.000000pt" viewBox="0 0 556.000000 449.000000"
 preserveAspectRatio="xMidYMid meet">

<g transform="translate(0.000000,449.000000) scale(0.100000,-0.100000)"
fill="#000000" stroke="none">
<path d="M1690 3590 l0 -290 55 0 55 0 0 135 0 135 55 0 55 0 0 39 0 40 -52 3
-53 3 -3 113 -3 112 -54 0 -55 0 0 -290z"/>
<path d="M2475 3867 c-3 -6 -4 -183 -3 -392 l3 -380 50 0 50 0 3 198 2 197 55
0 55 0 0 45 0 45 -55 0 -55 0 0 150 0 150 -50 0 c-31 0 -52 -5 -55 -13z"/>
<path d="M3310 3615 l0 -265 -80 0 -80 0 0 -45 0 -45 80 0 80 0 0 -85 0 -85
50 0 50 0 0 395 0 395 -50 0 -50 0 0 -265z"/>
<path d="M2945 3841 c-119 -31 -172 -126 -123 -221 32 -61 88 -90 176 -90 123
0 197 59 197 157 0 61 -22 97 -81 130 -44 24 -124 36 -169 24z m130 -106 c14
-13 25 -36 25 -50 0 -14 -11 -37 -25 -50 -19 -20 -34 -25 -75 -25 -41 0 -56 5
-75 25 -14 13 -25 36 -25 50 0 14 11 37 25 50 19 20 34 25 75 25 41 0 56 -5
75 -25z"/>
<path d="M3787 3829 c-75 -18 -144 -66 -173 -121 -19 -36 -18 -122 2 -164 9
-19 29 -44 45 -55 29 -20 29 -22 29 -120 l0 -99 -80 0 -80 0 0 -45 0 -45 355
0 355 0 0 45 0 45 -80 0 -80 0 0 98 0 98 31 23 c95 70 85 228 -20 296 -71 47
-207 67 -304 44z m195 -89 c84 -24 118 -128 61 -182 -38 -34 -60 -45 -114 -53
-114 -17 -229 42 -229 117 0 50 20 81 70 106 49 24 146 30 212 12z m-2 -393
l0 -78 -92 3 -93 3 -3 64 c-2 35 -1 69 1 75 3 7 38 11 96 11 l91 0 0 -78z"/>
<path d="M1210 3625 l0 -195 185 0 185 0 0 195 0 195 -55 0 -55 0 0 -55 0 -55
-80 0 -80 0 0 55 0 55 -50 0 -50 0 0 -195z m260 -60 l0 -55 -80 0 -80 0 0 55
0 55 80 0 80 0 0 -55z"/>
<path d="M2007 3793 c-4 -3 -7 -24 -7 -45 l0 -38 131 0 132 0 -7 -42 c-10 -60
-58 -157 -106 -211 -23 -26 -75 -69 -116 -95 l-73 -49 30 -42 31 -41 37 22
c129 77 230 194 271 310 23 67 45 200 36 223 -4 13 -33 15 -179 15 -96 0 -177
-3 -180 -7z"/>
<path d="M3125 3490 c-38 -4 -139 -8 -222 -9 -166 -1 -159 2 -147 -60 l7 -31
88 0 89 0 0 -140 0 -140 55 0 55 0 0 144 0 143 102 12 c56 6 103 13 105 14 1
2 0 20 -4 40 -6 41 1 40 -128 27z"/>
<path d="M1300 3231 l0 -131 265 0 265 0 0 45 0 45 -215 0 -214 0 -3 83 -3 82
-47 3 -48 3 0 -130z"/>
<path d="M4365 3285 c-43 -42 -29 -96 30 -115 30 -10 35 -15 30 -33 -7 -23
-62 -81 -85 -89 -12 -4 -12 -10 -1 -36 7 -18 15 -32 18 -32 26 0 110 73 131
115 31 63 20 171 -21 200 -32 22 -74 19 -102 -10z"/>
<path d="M3005 2838 c-3 -8 -4 -99 -3 -203 l3 -190 53 -3 52 -3 0 80 0 81 50
0 50 0 0 45 0 45 -50 0 -49 0 -3 78 -3 77 -48 3 c-32 2 -49 -1 -52 -10z"/>
<path d="M2280 2695 l0 -145 -40 0 -40 0 0 135 0 135 -45 0 -45 0 0 -365 0
-365 45 0 45 0 2 183 3 182 38 3 37 3 0 -200 0 -201 50 0 50 0 0 390 0 390
-50 0 -50 0 0 -145z"/>
<path d="M3780 2450 l0 -390 55 0 55 0 0 195 0 194 58 3 57 3 3 43 3 42 -60 0
-61 0 0 150 0 150 -55 0 -55 0 0 -390z"/>
<path d="M2520 2635 l0 -175 185 0 185 0 0 175 0 175 -49 0 -50 0 -3 -47 -3
-48 -82 -3 -83 -3 0 51 0 50 -50 0 -50 0 0 -175z m258 -7 c7 -7 12 -27 12 -45
l0 -33 -85 0 -85 0 0 38 c0 21 3 42 7 45 11 12 138 8 151 -5z"/>
<path d="M3290 2725 l0 -45 79 0 c92 0 92 0 79 -104 -14 -102 -69 -204 -139
-252 -21 -14 -39 -32 -39 -38 0 -7 13 -27 28 -46 l29 -34 31 22 c45 33 100
100 125 155 12 26 25 47 28 47 4 0 12 -14 19 -30 20 -49 67 -108 112 -140 22
-16 44 -30 48 -30 4 0 20 19 35 41 21 33 24 43 13 50 -7 5 -15 9 -19 9 -3 0
-25 19 -48 43 -60 58 -100 147 -108 236 l-6 71 82 0 82 0 -3 43 -3 42 -212 3
-213 2 0 -45z"/>
<path d="M1740 2700 l0 -39 98 -3 97 -3 -2 -40 c-4 -98 -80 -218 -182 -290
-23 -15 -41 -30 -41 -34 0 -3 13 -21 29 -40 l28 -35 51 38 c72 53 137 128 171
199 31 64 61 188 61 252 l0 35 -155 0 -155 0 0 -40z"/>
<path d="M2600 2370 l0 -40 206 0 205 0 -3 -27 -3 -28 -202 -3 -203 -2 0 -105
0 -105 268 0 267 0 0 40 0 40 -217 0 -218 0 0 30 0 30 205 0 205 0 0 105 0
105 -255 0 -255 0 0 -40z"/>
<path d="M2150 1785 l0 -35 -85 0 -85 0 0 -40 0 -40 220 0 220 0 0 40 0 40
-85 0 -85 0 0 35 0 35 -50 0 -50 0 0 -35z"/>
<path d="M4080 1426 l0 -396 55 0 55 0 -2 393 -3 392 -52 3 -53 3 0 -395z"/>
<path d="M1730 1420 l0 -390 53 0 52 0 -3 390 -2 390 -50 0 -50 0 0 -390z"/>
<path d="M2480 1505 l0 -305 55 0 55 0 0 135 0 135 50 0 50 0 0 39 0 40 -47 3
-48 3 -3 128 -3 127 -54 0 -55 0 0 -305z"/>
<path d="M3292 1603 l3 -208 53 -3 52 -3 0 210 0 211 -55 0 -55 0 2 -207z"/>
<path d="M4822 1418 l3 -393 53 -3 52 -3 0 205 0 206 55 0 55 0 0 45 0 45 -55
0 -55 0 0 145 0 145 -55 0 -55 0 2 -392z"/>
<path d="M2885 1766 c-56 -21 -112 -86 -121 -141 -18 -121 71 -209 211 -209
126 0 197 60 203 174 3 59 1 69 -26 106 -16 22 -47 49 -68 59 -50 24 -147 29
-199 11z m166 -105 c31 -31 38 -75 19 -112 -17 -31 -68 -52 -113 -46 -56 8
-87 40 -87 91 1 65 35 95 108 96 35 0 49 -6 73 -29z"/>
<path d="M643 1761 c-47 -12 -119 -57 -142 -89 -88 -124 -9 -286 156 -320 l38
-8 3 -72 3 -72 -151 0 -150 0 0 -40 0 -40 355 0 355 0 0 40 0 40 -150 0 -151
0 3 72 3 72 38 8 c109 23 197 115 197 208 0 70 -48 138 -124 177 -44 23 -65
27 -151 29 -55 2 -114 -1 -132 -5z m192 -82 c57 -16 105 -68 105 -113 0 -89
-63 -135 -184 -136 -119 0 -186 48 -186 134 0 92 136 151 265 115z"/>
<path d="M1210 1695 l0 -45 86 0 87 0 -7 -70 c-11 -125 -64 -229 -145 -286
-22 -16 -41 -34 -41 -39 0 -6 13 -26 29 -45 l28 -35 41 29 c49 33 79 71 116
145 l27 53 37 -62 c35 -59 119 -140 145 -140 7 0 24 18 40 39 l27 39 -35 22
c-90 56 -150 162 -156 280 l-4 65 83 3 82 3 0 44 0 45 -220 0 -220 0 0 -45z"/>
<path d="M3570 1485 c0 -230 2 -256 17 -262 22 -8 312 13 382 28 l53 11 -5 40
c-3 22 -7 41 -9 43 -1 2 -23 -1 -48 -5 -25 -5 -98 -12 -162 -16 l-118 -7 0
211 0 212 -55 0 -55 0 0 -255z"/>
<path d="M4350 1475 l0 -265 68 0 c80 0 292 17 329 26 23 6 25 10 20 46 -3 22
-7 41 -9 43 -2 2 -35 0 -73 -5 -39 -5 -107 -9 -152 -10 l-83 0 0 170 0 170
130 0 130 0 0 45 0 45 -180 0 -180 0 0 -265z"/>
<path d="M2121 1641 c-52 -14 -81 -33 -97 -63 -35 -68 6 -140 91 -158 24 -4
30 -11 30 -30 0 -25 -2 -25 -92 -28 -100 -3 -102 -4 -86 -61 l6 -24 171 6
c148 5 293 20 304 32 2 1 0 18 -3 37 l-7 34 -51 -7 c-29 -4 -71 -8 -95 -8 -39
-1 -43 1 -40 21 2 16 13 25 40 31 23 6 50 22 69 44 26 30 30 42 25 71 -10 67
-64 101 -164 107 -37 2 -82 0 -101 -4z m135 -76 c28 -11 35 -19 32 -37 -9 -64
-178 -63 -178 1 0 45 79 64 146 36z"/>
<path d="M2880 1195 l0 -155 260 0 260 0 0 155 0 155 -50 0 -50 0 0 -35 0 -35
-155 0 -155 0 0 35 0 35 -55 0 -55 0 0 -155z m415 -35 l0 -35 -152 -3 -153 -3
0 41 0 41 153 -3 152 -3 0 -35z"/>
<path d="M5154 1227 c-34 -29 -39 -84 -9 -117 26 -29 89 -28 109 2 54 76 -31
174 -100 115z"/>
<path d="M2070 1140 l0 -100 275 0 275 0 0 40 0 40 -222 2 -223 3 -3 58 -3 57
-49 0 -50 0 0 -100z"/>
</g>
</svg>
