<?xml version="1.0" standalone="no"?>
<!DOCTYPE svg PUBLIC "-//W3C//DTD SVG 20010904//EN"
 "http://www.w3.org/TR/2001/REC-SVG-20010904/DTD/svg10.dtd">
<svg version="1.0" xmlns="http://www.w3.org/2000/svg"
 width="500.000000pt" height="500.000000pt" viewBox="0 0 500.000000 500.000000"
 preserveAspectRatio="xMidYMid meet">

<g transform="translate(0.000000,500.000000) scale(0.100000,-0.100000)"
fill="#000000" stroke="none">
<path d="M920 2495 l0 -1585 1585 0 1585 0 0 1585 0 1585 -1585 0 -1585 0 0
-1585z m3082 4 c2 -825 2 -1501 1 -1502 -1 -1 -677 -1 -1502 1 l-1501 2 0
1500 0 1500 1500 0 1500 0 2 -1501z"/>
<path d="M2035 2740 c-3 -5 -15 -10 -26 -10 -10 0 -19 -4 -19 -10 0 -5 7 -10
15 -10 13 0 15 -26 15 -175 0 -147 -2 -177 -15 -181 -33 -13 -12 -24 45 -24
33 0 60 2 60 5 0 3 -9 14 -20 25 -16 16 -20 33 -20 84 0 58 3 67 26 85 60 47
84 19 84 -94 0 -68 -2 -77 -20 -82 -41 -11 -18 -23 45 -23 63 0 86 12 45 23
-18 5 -20 14 -20 97 0 83 -2 93 -25 115 -30 31 -57 31 -103 3 l-35 -22 6 102
c5 95 4 102 -13 102 -11 0 -22 -4 -25 -10z"/>
<path d="M1690 2717 c-105 -34 -161 -178 -109 -284 56 -115 200 -145 295 -61
87 77 96 199 21 285 -56 64 -128 85 -207 60z m135 -48 c78 -69 85 -223 13
-291 -23 -22 -40 -28 -73 -28 -110 0 -181 156 -126 276 24 53 55 74 108 74 33
0 50 -7 78 -31z"/>
<path d="M2338 2575 c-29 -16 -44 -51 -34 -82 3 -11 26 -32 51 -47 58 -37 68
-50 60 -76 -10 -32 -66 -24 -83 13 -18 37 -32 34 -32 -8 0 -31 3 -35 39 -46
48 -14 87 -3 115 34 29 39 13 75 -48 108 -57 31 -73 53 -55 75 18 22 62 13 74
-13 15 -34 39 -30 30 5 -3 15 -10 31 -14 35 -16 16 -76 17 -103 2z"/>
<path d="M2575 2573 c-45 -23 -65 -44 -65 -65 0 -30 43 -19 50 12 5 21 12 25
40 25 33 0 35 -2 38 -35 3 -34 1 -36 -46 -52 -26 -10 -59 -29 -72 -43 -51 -54
19 -117 90 -81 28 14 34 14 47 1 18 -19 33 -19 61 1 28 20 28 34 0 31 -22 -2
-23 2 -28 98 -5 94 -6 100 -30 112 -32 16 -48 16 -85 -4z m65 -157 c0 -47 -42
-76 -75 -52 -25 18 -10 55 28 71 45 20 47 19 47 -19z"/>
<path d="M2845 2574 c-45 -24 -65 -45 -65 -66 0 -31 37 -22 49 12 8 24 16 30
39 30 31 0 42 -14 42 -53 0 -18 -11 -26 -51 -40 -88 -32 -117 -88 -63 -124 24
-16 30 -16 70 -1 38 14 44 14 58 0 14 -14 19 -14 51 1 37 18 41 39 5 30 -19
-5 -20 0 -20 89 0 60 -5 100 -12 111 -19 25 -68 30 -103 11z m65 -159 c0 -28
-5 -37 -29 -49 -23 -12 -32 -13 -46 -2 -26 18 -15 49 25 68 47 24 50 23 50
-17z"/>
<path d="M3067 2573 c-26 -14 -27 -16 -13 -32 12 -13 16 -39 16 -94 0 -66 -3
-79 -20 -89 -33 -21 -23 -28 40 -28 57 0 78 11 45 24 -12 4 -15 24 -15 89 0
80 1 84 25 95 60 27 75 6 75 -103 0 -68 -2 -77 -20 -82 -41 -11 -18 -23 45
-23 63 0 86 12 45 23 -18 5 -20 14 -20 90 l0 85 31 12 c53 22 64 7 67 -94 2
-70 0 -87 -13 -92 -33 -13 -12 -24 45 -24 58 0 80 12 40 23 -18 5 -20 14 -20
100 0 92 -1 96 -27 117 -31 24 -74 21 -105 -7 -17 -15 -19 -15 -32 3 -19 25
-87 25 -115 0 -21 -19 -21 -19 -21 2 0 25 -13 26 -53 5z"/>
</g>
</svg>
